<svg width="1440" height="1024" viewBox="0 0 1440 1024" fill="none" xmlns="http://www.w3.org/2000/svg">
<path d="M1004.74 762.551C1017.11 747.307 1035.98 737.561 1057.14 737.561C1094.39 737.561 1124.59 767.76 1124.59 805.009C1124.59 842.263 1094.39 872.461 1057.14 872.461C1037.67 872.461 1020.12 864.201 1007.81 851.001C1022.1 870.44 1045.13 883.059 1071.12 883.059C1114.49 883.059 1149.64 847.9 1149.64 804.529C1149.64 761.157 1114.49 726 1071.12 726C1043.18 726 1018.66 740.583 1004.74 762.551ZM1119.41 880.681C1116.69 883.177 1115.32 886.667 1115.32 891.148C1115.32 895.631 1116.67 899.041 1119.36 901.383C1122.05 903.725 1125.99 904.897 1131.19 904.897C1134.39 904.897 1137.4 904.501 1140.21 903.708V888.843H1129.5V893.875H1133.61V899.445C1132.81 899.649 1131.89 899.752 1130.84 899.752C1128.31 899.752 1126.29 898.957 1124.79 897.369C1123.29 895.784 1122.54 893.644 1122.54 890.955C1122.54 888.165 1123.38 885.963 1125.06 884.348C1126.74 882.736 1129.04 881.929 1131.95 881.929C1134.49 881.929 1136.84 882.544 1139.02 883.773L1139.64 878.243C1136.79 877.372 1133.89 876.936 1130.92 876.936C1125.98 876.936 1122.14 878.185 1119.41 880.681ZM1171.23 880.681C1168.88 883.153 1167.71 886.577 1167.71 890.955C1167.71 895.333 1168.88 898.752 1171.23 901.211C1173.57 903.669 1176.82 904.897 1180.96 904.897C1185.11 904.897 1188.35 903.669 1190.68 901.211C1193.01 898.752 1194.18 895.333 1194.18 890.955C1194.18 886.577 1193.01 883.153 1190.68 880.681C1188.35 878.209 1185.11 876.975 1180.96 876.975C1176.82 876.975 1173.57 878.209 1171.23 880.681ZM1176.55 897.293C1175.42 895.731 1174.86 893.593 1174.86 890.879C1174.86 888.189 1175.42 886.065 1176.56 884.503C1177.7 882.943 1179.17 882.159 1180.96 882.159C1182.76 882.159 1184.22 882.943 1185.34 884.503C1186.47 886.065 1187.03 888.189 1187.03 890.879C1187.03 893.593 1186.48 895.731 1185.36 897.293C1184.25 898.855 1182.78 899.636 1180.96 899.636C1179.14 899.636 1177.67 898.855 1176.55 897.293ZM1298.42 877.627L1288.32 904.284H1295.34L1297.34 898.637H1307.59L1309.48 904.284H1317.08L1306.98 877.627H1298.42ZM1302.56 883.58L1305.91 893.568H1299.11L1302.56 883.58ZM1279.29 877.627V892.607C1279.29 894.809 1278.96 896.399 1278.31 897.369C1277.66 898.344 1276.5 898.831 1274.83 898.831C1274.09 898.831 1273.33 898.677 1272.57 898.369V904.207C1274.08 904.668 1275.64 904.897 1277.25 904.897C1280.4 904.897 1282.71 904.041 1284.19 902.325C1285.66 900.609 1286.39 897.96 1286.39 894.375V877.627H1279.29ZM1250.68 877.627V882.775H1263.5L1250.29 898.331V904.284H1270.92V899.137H1257.52L1270.92 883.303V877.627H1250.68ZM1227.63 877.627V904.284H1246.56V899.137H1234.73V893.067H1245.49V887.999H1234.73V882.621H1246.14V877.627H1227.63ZM1198.36 877.627V904.284H1206.81C1211.93 904.284 1215.48 903.708 1217.45 902.555C1221.62 900.121 1223.71 896.205 1223.71 890.801C1223.71 885.732 1221.75 881.968 1217.84 879.509C1215.84 878.255 1212.46 877.627 1207.7 877.627H1198.36ZM1205.51 882.775H1208.2C1210.86 882.775 1212.89 883.472 1214.3 884.868C1215.71 886.264 1216.41 888.241 1216.41 890.801C1216.41 893.413 1215.74 895.424 1214.38 896.832C1213.02 898.24 1211.09 898.944 1208.58 898.944H1205.51V882.775ZM1145.21 877.627V904.284H1164.14V899.137H1152.31V893.067H1163.07V887.999H1152.31V882.621H1163.72V877.627H1145.21Z" fill="white"/>
<path d="M896.136 817.794V801.523H930.033V843.034H914.075L913.032 835.732C910.877 838.167 908.407 840.114 905.627 841.574C901.385 843.798 896.413 844.911 890.713 844.911C879.169 844.911 870.061 841.187 863.387 833.736C857.129 826.775 854 817.69 854 806.479C854 794.644 857.164 785.071 863.492 777.76C870.513 769.615 880.456 765.542 893.321 765.542C902.984 765.542 910.981 767.984 917.308 772.87C923.635 777.755 927.529 784.631 928.991 793.492H905.523C904.757 790.751 903.401 788.539 901.455 786.85C899.161 784.882 896.309 783.898 892.903 783.898C888.452 783.898 884.959 785.779 882.421 789.544C879.883 793.308 878.613 798.814 878.613 806.062C878.613 812.127 879.692 816.867 881.848 820.282C884.489 824.463 888.661 826.554 894.364 826.554C897.283 826.554 899.959 825.739 902.393 824.103C904.828 822.471 906.357 820.367 906.984 817.794H896.136Z" fill="white"/>
<path d="M942.025 767.627H1003.35V785.15H966.743V795.995H997.615V813.518H966.743V825.303H1004.81V842.824H942.025V767.627Z" fill="white"/>
<path d="M1153.71 834.242L1177.94 767.63L1188.78 767.627V842.826H1181.69V775.242L1156.76 842.826H1150.09L1125.16 775.242V842.826H1118.07V767.627L1128.91 767.63L1153.71 834.242Z" fill="white"/>
<path d="M1214.19 813.309H1243.72L1228.95 773.711L1214.19 813.309ZM1246.06 819.151H1211.79L1202.83 842.813L1195.77 842.825L1225.29 767.627H1233.21L1261.9 842.825L1254.86 842.805L1246.06 819.151Z" fill="white"/>
<path d="M1276.39 773.781V803.505H1294.54C1302.33 803.505 1307.75 801.873 1310.81 798.603C1313.03 796.241 1314.15 792.658 1314.15 787.861C1314.15 783.271 1312.56 779.778 1309.4 777.379C1306.24 774.979 1301.35 773.781 1294.75 773.781H1276.39ZM1276.39 809.659V842.825H1269.3V767.627H1297.25C1304.41 767.627 1309.98 768.949 1313.94 771.59C1318.81 774.859 1321.24 780.142 1321.24 787.443C1321.24 795.37 1318.28 801.246 1312.37 805.07C1307.64 808.13 1301.39 809.659 1293.6 809.659H1276.39Z" fill="white"/>
<path d="M1088.52 806.3C1088.52 823.478 1074.59 837.409 1057.41 837.409C1040.23 837.409 1026.3 823.478 1026.3 806.3C1026.3 789.12 1040.23 775.19 1057.41 775.19C1074.59 775.19 1088.52 789.12 1088.52 806.3Z" fill="white"/>
<path d="M1037.34 784.909C1039.36 784.891 1041.42 784.959 1043.5 785.101C1048.21 780.636 1054.42 777.556 1061.88 777.32C1060.38 777.087 1058.88 776.973 1057.39 776.972C1049.87 776.972 1042.71 779.881 1037.34 784.909ZM1045.35 785.24C1047.35 785.423 1049.37 785.681 1051.39 786.005C1053.83 782.864 1056.72 780.292 1060.01 778.8C1054.22 779.397 1049.29 781.817 1045.35 785.24ZM1052.97 786.277C1055.94 786.807 1058.91 787.479 1061.84 788.292L1064.53 778.864C1060.15 779.476 1056.23 782.305 1052.97 786.277ZM1063.14 788.661C1066.07 789.521 1068.95 790.517 1071.74 791.633C1071.06 786.537 1069.22 782.063 1065.82 779.235L1063.14 788.661ZM1080.9 795.955C1082.6 796.891 1084.24 797.871 1085.79 798.901C1083.54 790.323 1077.46 782.969 1068.94 779.339C1075.33 783.557 1079.13 789.547 1080.9 795.955ZM1073.22 792.241C1075.29 793.111 1077.29 794.041 1079.22 795.041C1077.56 789.916 1074.47 785.148 1069.66 781.511C1071.7 784.525 1072.8 788.256 1073.22 792.241ZM1035.97 786.281C1033.04 789.421 1030.75 793.253 1029.4 797.623L1034.68 799.128C1036.17 794.573 1038.73 790.084 1042.23 786.369C1040.81 786.292 1039.41 786.252 1038.02 786.252C1037.33 786.252 1036.65 786.263 1035.97 786.281ZM1035.97 799.495L1043.62 801.673C1045.07 796.8 1047.39 791.58 1050.48 787.231C1048.31 786.899 1046.15 786.648 1044.01 786.484C1040.25 790.183 1037.53 794.804 1035.97 799.495ZM1044.91 802.044L1056.95 805.469L1061.47 789.585C1058.36 788.721 1055.2 788.008 1052.03 787.469C1048.9 791.648 1046.46 796.861 1044.91 802.044ZM1058.24 805.841L1070.28 809.269C1071.69 804.051 1072.36 798.339 1071.91 793.143C1068.96 791.932 1065.89 790.869 1062.77 789.953L1058.24 805.841ZM1071.57 809.64L1080.04 812.053C1081.04 807.221 1081.04 801.916 1079.74 796.856C1077.69 795.751 1075.56 794.716 1073.35 793.764C1073.69 799.087 1072.9 804.735 1071.57 809.64ZM1081.35 812.423L1085.79 813.687C1086.92 809.352 1087.02 804.983 1086.23 800.839C1084.68 799.753 1083.05 798.711 1081.33 797.727C1082.4 802.659 1082.32 807.756 1081.35 812.423ZM1028.66 812.144C1030.2 813.159 1031.78 814.141 1033.44 815.065C1032.6 810.167 1032.99 805.203 1034.14 800.901C1034.18 800.74 1034.23 800.577 1034.28 800.416L1029.03 798.92C1027.86 803.389 1027.8 807.891 1028.66 812.144ZM1035.45 801.251C1034.26 805.685 1033.91 810.855 1034.98 815.888C1037.08 816.995 1039.25 818.028 1041.48 818.979C1041.12 813.617 1041.9 807.915 1043.24 802.969L1035.58 800.785C1035.53 800.941 1035.48 801.096 1035.45 801.251ZM1042.92 819.593C1045.88 820.8 1048.93 821.851 1052.02 822.757L1056.58 806.768L1044.54 803.339C1043.12 808.599 1042.45 814.363 1042.92 819.593ZM1053.32 823.125C1056.44 823.992 1059.59 824.7 1062.72 825.227C1065.88 821.031 1068.35 815.783 1069.91 810.565L1057.87 807.139L1053.32 823.125ZM1064.28 825.457C1067.24 825.901 1070.17 826.197 1073.03 826.299C1076.05 822.901 1078.14 818.851 1079.32 814.951C1079.48 814.432 1079.62 813.904 1079.75 813.369L1071.2 810.936C1069.74 815.84 1067.4 821.093 1064.28 825.457ZM1080.61 815.341C1079.33 819.591 1077.36 823.281 1074.86 826.321C1076.24 826.332 1077.6 826.309 1078.92 826.239C1081.82 823.117 1084.08 819.315 1085.42 814.984L1081.05 813.74C1080.91 814.279 1080.77 814.815 1080.61 815.341ZM1045.24 833C1038.72 828.789 1035.22 822.903 1033.79 816.776C1032.18 815.909 1030.62 815 1029.11 814.052C1031.37 822.268 1037.16 829.325 1045.24 833ZM1045.44 831.517C1043.25 828.469 1042.06 824.621 1041.61 820.501C1039.49 819.62 1037.42 818.668 1035.42 817.645C1036.9 822.872 1040.02 827.828 1045.44 831.517ZM1049 833.375L1051.66 824.049C1048.75 823.2 1045.89 822.211 1043.09 821.101C1043.79 826.145 1045.63 830.572 1049 833.375ZM1050.3 833.744C1054.64 833.137 1058.53 830.343 1061.78 826.417C1058.84 825.899 1055.88 825.231 1052.95 824.416L1050.3 833.744ZM1053.02 834.5C1061.1 834.981 1067.34 831.989 1071.82 827.577C1069.05 827.432 1066.22 827.136 1063.37 826.687C1060.5 830.345 1057.03 833.225 1053.02 834.5ZM1073.7 827.656C1069.62 832.031 1064.32 834.804 1058.36 835.627C1065.56 835.397 1072.38 832.5 1077.54 827.643C1076.27 827.679 1075 827.689 1073.7 827.656ZM1049.37 834.517V834.516V834.517Z" fill="white"/>
<path d="M1057.41 835.309C1041.41 835.309 1028.4 822.296 1028.4 806.3C1028.4 790.304 1041.41 777.289 1057.41 777.289C1073.41 777.289 1086.42 790.304 1086.42 806.3C1086.42 822.296 1073.41 835.309 1057.41 835.309ZM1057.41 761.363C1032.63 761.363 1012.47 781.521 1012.47 806.3C1012.47 831.077 1032.63 851.236 1057.41 851.236C1082.19 851.236 1102.35 831.077 1102.35 806.3C1102.35 781.521 1082.19 761.363 1057.41 761.363Z" fill="white"/>
<path d="M204.738 92.5507C217.106 77.3067 235.983 67.5613 257.142 67.5613C294.394 67.5613 324.593 97.76 324.593 135.009C324.593 172.263 294.394 202.461 257.142 202.461C237.667 202.461 220.121 194.201 207.807 181.001C222.105 200.44 245.134 213.059 271.115 213.059C314.486 213.059 349.645 177.9 349.645 134.529C349.645 91.1573 314.486 56 271.115 56C243.185 56 218.659 70.5827 204.738 92.5507ZM319.414 210.681C316.687 213.177 315.325 216.667 315.325 221.148C315.325 225.631 316.669 229.041 319.357 231.383C322.046 233.725 325.987 234.897 331.187 234.897C334.387 234.897 337.397 234.501 340.214 233.708V218.843H329.498V223.875H333.606V229.445C332.811 229.649 331.89 229.752 330.842 229.752C328.306 229.752 326.29 228.957 324.791 227.369C323.294 225.784 322.543 223.644 322.543 220.955C322.543 218.165 323.382 215.963 325.061 214.348C326.737 212.736 329.037 211.929 331.954 211.929C334.49 211.929 336.845 212.544 339.022 213.773L339.637 208.243C336.794 207.372 333.889 206.936 330.918 206.936C325.975 206.936 322.142 208.185 319.414 210.681V210.681ZM371.226 210.681C368.885 213.153 367.711 216.577 367.711 220.955C367.711 225.333 368.885 228.752 371.226 231.211C373.569 233.669 376.815 234.897 380.963 234.897C385.11 234.897 388.35 233.669 390.681 231.211C393.01 228.752 394.175 225.333 394.175 220.955C394.175 216.577 393.01 213.153 390.681 210.681C388.35 208.209 385.11 206.975 380.963 206.975C376.815 206.975 373.569 208.209 371.226 210.681ZM376.546 227.293C375.419 225.731 374.857 223.593 374.857 220.879C374.857 218.189 375.425 216.065 376.565 214.503C377.703 212.943 379.17 212.159 380.963 212.159C382.755 212.159 384.215 212.943 385.341 214.503C386.469 216.065 387.031 218.189 387.031 220.879C387.031 223.593 386.475 225.731 385.359 227.293C384.247 228.855 382.781 229.636 380.963 229.636C379.145 229.636 377.673 228.855 376.546 227.293V227.293ZM498.415 207.627L488.315 234.284H495.343L497.342 228.637H507.594L509.477 234.284H517.082L506.981 207.627H498.415ZM502.563 213.58L505.906 223.568H499.107L502.563 213.58ZM479.289 207.627V222.607C479.289 224.809 478.962 226.399 478.309 227.369C477.655 228.344 476.498 228.831 474.833 228.831C474.089 228.831 473.334 228.677 472.566 228.369V234.207C474.078 234.668 475.639 234.897 477.253 234.897C480.402 234.897 482.714 234.041 484.186 232.325C485.657 230.609 486.394 227.96 486.394 224.375V207.627H479.289ZM450.675 207.627V212.775H463.505L450.291 228.331V234.284H470.915V229.137H457.517L470.915 213.303V207.627H450.675ZM427.629 207.627V234.284H446.565V229.137H434.734V223.067H445.49V217.999H434.734V212.621H446.142V207.627H427.629ZM398.362 207.627V234.284H406.813C411.934 234.284 415.479 233.708 417.451 232.555C421.625 230.121 423.713 226.205 423.713 220.801C423.713 215.732 421.754 211.968 417.835 209.509C415.839 208.255 412.458 207.627 407.695 207.627H398.362ZM405.507 212.775H408.195C410.858 212.775 412.893 213.472 414.302 214.868C415.709 216.264 416.414 218.241 416.414 220.801C416.414 223.413 415.735 225.424 414.378 226.832C413.021 228.24 411.087 228.944 408.579 228.944H405.507V212.775ZM345.206 207.627V234.284H364.142V229.137H352.311V223.067H363.066V217.999H352.311V212.621H363.719V207.627H345.206Z" fill="white"/>
<path d="M96.136 147.794V131.523H130.033V173.034H114.075L113.032 165.732C110.877 168.167 108.407 170.114 105.627 171.574C101.385 173.798 96.4133 174.911 90.7133 174.911C79.1693 174.911 70.0613 171.187 63.3867 163.736C57.1293 156.775 54 147.69 54 136.479C54 124.644 57.164 115.071 63.492 107.76C70.5133 99.615 80.456 95.5417 93.3213 95.5417C102.984 95.5417 110.981 97.9844 117.308 102.87C123.635 107.755 127.529 114.631 128.991 123.492H105.523C104.757 120.751 103.401 118.539 101.455 116.85C99.1613 114.882 96.3093 113.898 92.9027 113.898C88.452 113.898 84.9587 115.779 82.4213 119.544C79.8827 123.308 78.6133 128.814 78.6133 136.062C78.6133 142.127 79.692 146.867 81.848 150.282C84.4893 154.463 88.6613 156.554 94.364 156.554C97.2827 156.554 99.9587 155.739 102.393 154.103C104.828 152.471 106.357 150.367 106.984 147.794H96.136Z" fill="white"/>
<path d="M142.025 97.627H203.351V115.15H166.743V125.995H197.615V143.518H166.743V155.303H204.812V172.824H142.025V97.627Z" fill="white"/>
<path d="M353.707 164.242L377.942 97.6297L388.783 97.627V172.826H381.691V105.242L356.764 172.826H350.092L325.163 105.242V172.826H318.071V97.627L328.912 97.6297L353.707 164.242Z" fill="white"/>
<path d="M414.189 143.309H443.717L428.946 103.711L414.189 143.309ZM446.055 149.151H411.787L402.834 172.813L395.771 172.825L425.287 97.6266H433.213L461.897 172.825L454.855 172.805L446.055 149.151Z" fill="white"/>
<path d="M476.392 103.781V133.505H494.54C502.327 133.505 507.749 131.873 510.811 128.603C513.035 126.241 514.147 122.658 514.147 117.861C514.147 113.271 512.564 109.778 509.403 107.379C506.239 104.979 501.353 103.781 494.749 103.781H476.392ZM476.392 139.659V172.825H469.301V97.6274H497.252C504.413 97.6274 509.976 98.9487 513.939 101.59C518.807 104.859 521.239 110.142 521.239 117.443C521.239 125.37 518.283 131.246 512.373 135.07C507.644 138.13 501.387 139.659 493.6 139.659H476.392Z" fill="white"/>
<path d="M288.516 136.3C288.516 153.478 274.59 167.409 257.41 167.409C240.227 167.409 226.303 153.478 226.303 136.3C226.303 119.12 240.227 105.19 257.41 105.19C274.59 105.19 288.516 119.12 288.516 136.3Z" fill="white"/>
<path d="M237.341 114.909C239.362 114.891 241.418 114.959 243.495 115.101C248.206 110.636 254.415 107.556 261.878 107.32C260.375 107.087 258.875 106.973 257.39 106.972C249.873 106.972 242.713 109.881 237.341 114.909V114.909ZM245.353 115.24C247.351 115.423 249.37 115.681 251.391 116.005C253.834 112.864 256.719 110.292 260.006 108.8C254.219 109.397 249.29 111.817 245.353 115.24ZM252.966 116.277C255.941 116.807 258.913 117.479 261.839 118.292L264.527 108.864C260.151 109.476 256.227 112.305 252.966 116.277ZM263.139 118.661C266.074 119.521 268.954 120.517 271.741 121.633C271.063 116.537 269.222 112.063 265.823 109.235L263.139 118.661ZM280.901 125.955C282.599 126.891 284.237 127.871 285.793 128.901C283.545 120.323 277.458 112.969 268.937 109.339C275.331 113.557 279.131 119.547 280.901 125.955V125.955ZM273.225 122.241C275.287 123.111 277.289 124.041 279.217 125.041C277.555 119.916 274.474 115.148 269.665 111.511C271.697 114.525 272.802 118.256 273.225 122.241ZM235.974 116.281C233.037 119.421 230.751 123.253 229.399 127.623L234.675 129.128C236.173 124.573 238.73 120.084 242.23 116.369C240.814 116.292 239.409 116.252 238.018 116.252C237.333 116.252 236.651 116.263 235.974 116.281V116.281ZM235.974 129.495L243.615 131.673C245.07 126.8 247.386 121.58 250.482 117.231C248.313 116.899 246.151 116.648 244.006 116.484C240.247 120.183 237.527 124.804 235.974 129.495V129.495ZM244.911 132.044L256.946 135.469L261.471 119.585C258.357 118.721 255.195 118.008 252.029 117.469C248.902 121.648 246.461 126.861 244.911 132.044ZM258.243 135.841L270.277 139.269C271.691 134.051 272.362 128.339 271.91 123.143C268.961 121.932 265.894 120.869 262.769 119.953L258.243 135.841ZM271.574 139.64L280.045 142.053C281.045 137.221 281.039 131.916 279.737 126.856C277.694 125.751 275.558 124.716 273.351 123.764C273.686 129.087 272.905 134.735 271.574 139.64V139.64ZM281.346 142.423L285.79 143.687C286.921 139.352 287.019 134.983 286.227 130.839C284.679 129.753 283.047 128.711 281.331 127.727C282.399 132.659 282.323 137.756 281.346 142.423V142.423ZM228.665 142.144C230.199 143.159 231.783 144.141 233.443 145.065C232.597 140.167 232.99 135.203 234.141 130.901C234.185 130.74 234.234 130.577 234.282 130.416L229.029 128.92C227.865 133.389 227.795 137.891 228.665 142.144ZM235.446 131.251C234.255 135.685 233.911 140.855 234.982 145.888C237.075 146.995 239.247 148.028 241.478 148.979C241.118 143.617 241.905 137.915 243.243 132.969L235.578 130.785C235.534 130.941 235.485 131.096 235.446 131.251ZM242.922 149.593C245.883 150.8 248.933 151.851 252.021 152.757L256.575 136.768L244.542 133.339C243.118 138.599 242.446 144.363 242.922 149.593V149.593ZM253.318 153.125C256.443 153.992 259.594 154.7 262.725 155.227C265.883 151.031 268.347 145.783 269.907 140.565L257.873 137.139L253.318 153.125ZM264.279 155.457C267.241 155.901 270.173 156.197 273.027 156.299C276.05 152.901 278.141 148.851 279.318 144.951C279.477 144.432 279.615 143.904 279.747 143.369L271.203 140.936C269.739 145.84 267.405 151.093 264.279 155.457ZM280.61 145.341C279.326 149.591 277.359 153.281 274.865 156.321C276.241 156.332 277.597 156.309 278.925 156.239C281.823 153.117 284.081 149.315 285.421 144.984L281.047 143.74C280.91 144.279 280.769 144.815 280.61 145.341V145.341ZM245.239 163C238.725 158.789 235.225 152.903 233.789 146.776C232.178 145.909 230.618 145 229.113 144.052C231.367 152.268 237.161 159.325 245.239 163ZM245.443 161.517C243.25 158.469 242.063 154.621 241.61 150.501C239.493 149.62 237.421 148.668 235.418 147.645C236.897 152.872 240.015 157.828 245.443 161.517ZM248.998 163.375L251.655 154.049C248.753 153.2 245.891 152.211 243.094 151.101C243.787 156.145 245.626 160.572 248.998 163.375V163.375ZM250.295 163.744C254.638 163.137 258.534 160.343 261.783 156.417C258.839 155.899 255.883 155.231 252.949 154.416L250.295 163.744ZM253.022 164.5C261.105 164.981 267.345 161.989 271.821 157.577C269.05 157.432 266.219 157.136 263.366 156.687C260.498 160.345 257.031 163.225 253.022 164.5ZM273.701 157.656C269.618 162.031 264.323 164.804 258.357 165.627C265.563 165.397 272.383 162.5 277.538 157.643C276.274 157.679 275.001 157.689 273.701 157.656V157.656ZM249.373 164.517V164.516V164.517Z" fill="white"/>
<path d="M257.408 165.309C241.413 165.309 228.397 152.296 228.397 136.3C228.397 120.304 241.413 107.289 257.408 107.289C273.405 107.289 286.419 120.304 286.419 136.3C286.419 152.296 273.405 165.309 257.408 165.309ZM257.408 91.3627C232.629 91.3627 212.471 111.521 212.471 136.3C212.471 161.077 232.629 181.236 257.408 181.236C282.189 181.236 302.348 161.077 302.348 136.3C302.348 111.521 282.189 91.3627 257.408 91.3627Z" fill="white"/>
</svg>
