<svg width="90" height="90" viewBox="0 0 90 90" fill="none" xmlns="http://www.w3.org/2000/svg">
<path d="M25.2652 23.9374C27.2865 23.9187 29.3425 23.9867 31.4198 24.1294C36.1305 19.664 42.3399 16.584 49.8025 16.348C48.2999 16.1147 46.7998 16.0014 45.3145 16C37.7972 16 30.6372 18.9094 25.2652 23.9374V23.9374ZM33.2772 24.268C35.2758 24.4507 37.2945 24.7094 39.3158 25.0334C41.7585 21.8921 44.6438 19.32 47.9305 17.828C42.1438 18.4254 37.2145 20.8454 33.2772 24.268ZM40.8905 25.3054C43.8652 25.8347 46.8372 26.5067 49.7638 27.3201L52.4519 17.892C48.0759 18.504 44.1518 21.3334 40.8905 25.3054ZM51.0638 27.6894C53.9985 28.5494 56.8785 29.5454 59.6652 30.6614C58.9878 25.5654 57.1465 21.0907 53.7478 18.2627L51.0638 27.6894ZM68.8252 34.9827C70.5239 35.9187 72.1612 36.8987 73.7172 37.9294C71.4692 29.3507 65.3825 21.9974 56.8612 18.3667C63.2558 22.5854 67.0559 28.5747 68.8252 34.9827V34.9827ZM61.1492 31.2694C63.2118 32.1387 65.2132 33.0694 67.1412 34.0694C65.4799 28.944 62.3985 24.1761 57.5892 20.5387C59.6212 23.5534 60.7265 27.2841 61.1492 31.2694ZM23.8985 25.3094C20.9612 28.4494 18.6759 32.2814 17.3239 36.6507L22.5999 38.156C24.0972 33.6014 26.6545 29.112 30.1545 25.3974C28.7385 25.32 27.3332 25.2801 25.9425 25.2801C25.2572 25.2801 24.5759 25.2907 23.8985 25.3094V25.3094ZM23.8985 38.5227L31.5398 40.7014C32.9945 35.828 35.3105 30.608 38.4065 26.2587C36.2372 25.9267 34.0758 25.676 31.9305 25.512C28.1718 29.2107 25.4519 33.832 23.8985 38.5227V38.5227ZM32.8359 41.072L44.8705 44.4974L49.3958 28.6134C46.2812 27.7494 43.1198 27.036 39.9532 26.4974C36.8265 30.676 34.3852 35.8894 32.8359 41.072ZM46.1678 44.8694L58.2012 48.2974C59.6158 43.0787 60.2865 37.3667 59.8345 32.1707C56.8852 30.9601 53.8185 29.8974 50.6932 28.9814L46.1678 44.8694ZM59.4985 48.668L67.9692 51.0814C68.9692 46.2494 68.9638 40.9441 67.6612 35.8841C65.6185 34.7787 63.4825 33.7441 61.2758 32.7921C61.6105 38.1147 60.8292 43.7627 59.4985 48.668V48.668ZM69.2705 51.4507L73.7145 52.7147C74.8452 48.38 74.9439 44.0107 74.1519 39.8667C72.6039 38.7814 70.9719 37.7387 69.2559 36.7547C70.3239 41.6867 70.2478 46.784 69.2705 51.4507V51.4507ZM16.5892 51.172C18.1239 52.1867 19.7078 53.1694 21.3678 54.0934C20.5212 49.1947 20.9145 44.2307 22.0652 39.9294C22.1092 39.7681 22.1585 39.6054 22.2065 39.444L16.9532 37.948C15.7892 42.4174 15.7199 46.9187 16.5892 51.172ZM23.3705 40.2787C22.1799 44.7134 21.8358 49.8827 22.9065 54.916C24.9998 56.0227 27.1718 57.056 29.4025 58.0067C29.0425 52.6454 29.8292 46.9427 31.1678 41.9974L23.5025 39.8134C23.4585 39.9694 23.4092 40.124 23.3705 40.2787ZM30.8465 58.6214C33.8079 59.828 36.8572 60.8787 39.9452 61.7854L44.4998 45.796L32.4665 42.3667C31.0425 47.6267 30.3705 53.3907 30.8465 58.6214V58.6214ZM41.2425 62.1534C44.3678 63.02 47.5185 63.728 50.6492 64.2547C53.8078 60.0587 56.2718 54.8107 57.8318 49.5934L45.7972 46.1667L41.2425 62.1534ZM52.2039 64.4854C55.1652 64.9294 58.0972 65.2254 60.9519 65.3267C63.9745 61.9294 66.0652 57.8787 67.2425 53.9787C67.4012 53.46 67.5398 52.932 67.6718 52.3974L59.1278 49.9641C57.6638 54.8681 55.3292 60.1214 52.2039 64.4854ZM68.5345 54.3694C67.2505 58.6187 65.2839 62.3094 62.7892 65.3494C64.1652 65.3601 65.5212 65.3374 66.8492 65.2667C69.7478 62.1454 72.0052 58.3427 73.3452 54.012L68.9718 52.768C68.8345 53.3067 68.6932 53.8427 68.5345 54.3694V54.3694ZM33.1639 72.0281C26.6492 67.8174 23.1492 61.9307 21.7132 55.8041C20.1025 54.9374 18.5425 54.028 17.0372 53.08C19.2919 61.296 25.0852 68.3534 33.1639 72.0281ZM33.3678 70.5454C31.1745 67.4974 29.9878 63.6494 29.5345 59.5294C27.4172 58.648 25.3452 57.696 23.3425 56.6734C24.8212 61.9 27.9398 66.8561 33.3678 70.5454ZM36.9225 72.4027L39.5798 63.0774C36.6772 62.228 33.8158 61.2387 31.0185 60.1294C31.7118 65.1734 33.5505 69.6 36.9225 72.4027V72.4027ZM38.2198 72.772C42.5625 72.1654 46.4585 69.3707 49.7078 65.4454C46.7638 64.9267 43.8078 64.2587 40.8732 63.444L38.2198 72.772ZM40.9465 73.5281C49.0292 74.0094 55.2692 71.0174 59.7452 66.6054C56.9745 66.46 54.1439 66.164 51.2905 65.7147C48.4225 69.3734 44.9558 72.2534 40.9465 73.5281ZM61.6252 66.684C57.5425 71.0587 52.2478 73.8321 46.2812 74.6547C53.4878 74.4254 60.3079 71.528 65.4625 66.6707C64.1985 66.7067 62.9252 66.7174 61.6252 66.684V66.684ZM37.2972 73.5454V73.544V73.5454Z" fill="url(#paint0_linear_0_1)"/>
<path d="M44.9373 73.9467C28.9427 73.9467 15.9267 60.9334 15.9267 44.9374C15.9267 28.9414 28.9427 15.9267 44.9373 15.9267C60.9347 15.9267 73.948 28.9414 73.948 44.9374C73.948 60.9334 60.9347 73.9467 44.9373 73.9467ZM44.9373 2.57019e-05C20.1587 2.57019e-05 0 20.1587 0 44.9374C0 69.7147 20.1587 89.8734 44.9373 89.8734C69.7187 89.8734 89.8773 69.7147 89.8773 44.9374C89.8773 20.1587 69.7187 2.57019e-05 44.9373 2.57019e-05Z" fill="#231F20"/>
<defs>
<linearGradient id="paint0_linear_0_1" x1="17.1061" y1="37.4129" x2="73.497" y2="53.4794" gradientUnits="userSpaceOnUse">
<stop stop-color="#7AC25E"/>
<stop offset="1" stop-color="#00AA75"/>
</linearGradient>
</defs>
</svg>
